<svg xmlns="http://www.w3.org/2000/svg" width="22" height="21" viewBox="0 0 22 21">
    <path fill="#572589" d="M14.667 15.3l-4.583-4.365v-.691L9.836 10a6.12 6.12 0 0 1-3.878 1.373A5.834 5.834 0 0 1 0 5.687 5.834 5.834 0 0 1 5.958 0a5.834 5.834 0 0 1 5.958 5.687 5.529 5.529 0 0 1-1.439 3.7l.257.236h.724L16.032 14l-1.365 1.3zM5.958 1.75a4.039 4.039 0 0 0-4.125 3.937 4.039 4.039 0 0 0 4.125 3.938 4.039 4.039 0 0 0 4.125-3.938A4.039 4.039 0 0 0 5.958 1.75z" transform="translate(2.75 2.625)"/>
</svg>
